<svg xmlns="http://www.w3.org/2000/svg" width="512" height="512" viewBox="0 0 512 512">
  <defs>
    <linearGradient id="background" x1="64" y1="48" x2="448" y2="464" gradientUnits="userSpaceOnUse">
      <stop stop-color="#A78BFA"/>
      <stop offset="1" stop-color="#F472B6"/>
    </linearGradient>
  </defs>
  <rect width="512" height="512" rx="120" fill="#090D1B"/>
  <rect x="44" y="44" width="424" height="424" rx="104" fill="url(#background)"/>
  <path d="M256 119c-55 0-100 38-100 87 0 25 12 48 32 64-20 16-32 39-32 64 0 49 45 87 100 87s100-38 100-87c0-25-12-48-32-64 20-16 32-39 32-64 0-49-45-87-100-87Z" fill="#0B1020" opacity=".94"/>
  <circle cx="214" cy="206" r="18" fill="#F9A8D4"/>
  <circle cx="298" cy="206" r="18" fill="#C4B5FD"/>
  <path d="M207 323c27 25 71 25 98 0" fill="none" stroke="#F8FAFC" stroke-linecap="round" stroke-width="22"/>
  <path d="M256 102v52M256 358v52M139 256h52M321 256h52" stroke="#F8FAFC" stroke-linecap="round" stroke-width="18"/>
</svg>
